<svg id="Capa_1" enable-background="new 0 0 512 512" height="512" viewBox="0 0 512 512" width="512" xmlns="http://www.w3.org/2000/svg"><path d="m455.431 199.431c0-109.967-89.464-199.431-199.431-199.431-28.111 0-55.292 5.734-80.788 17.043-24.624 10.923-46.475 26.481-64.944 46.244-2.828 3.026-2.668 7.772.358 10.601 3.027 2.829 7.772 2.667 10.601-.358 34.762-37.197 83.885-58.53 134.773-58.53 101.695 0 184.431 82.735 184.431 184.431s-82.735 184.431-184.431 184.431-184.431-82.736-184.431-184.431c0-35.281 9.991-69.568 28.893-99.154 2.23-3.491 1.208-8.128-2.282-10.358s-8.129-1.208-10.358 2.283c-20.445 32.002-31.252 69.082-31.252 107.23 0 97.043 69.676 178.105 161.626 195.821v39.118h-6.643c-4.143 0-7.5 3.358-7.5 7.5v62.63c0 4.142 3.357 7.5 7.5 7.5s7.5-3.358 7.5-7.5v-55.13h73.895v55.13c0 4.142 3.357 7.5 7.5 7.5s7.5-3.358 7.5-7.5v-62.63c0-4.142-3.357-7.5-7.5-7.5h-6.643v-39.118c91.949-17.718 161.626-98.779 161.626-195.822zm-176.626 234.939h-45.609v-36.82c7.486.856 15.093 1.312 22.805 1.312s15.318-.456 22.805-1.312v36.82z"/><path d="m401.977 240.812c4.034.931 8.063-1.586 8.994-5.623 2.689-11.666 4.054-23.696 4.054-35.758 0-87.686-71.338-159.024-159.024-159.024s-159.025 71.338-159.025 159.024c0 87.687 71.338 159.024 159.024 159.024 29.962 0 59.171-8.415 84.47-24.335 24.6-15.48 44.513-37.351 57.588-63.249 1.866-3.697.383-8.208-3.315-10.075-3.697-1.865-8.208-.383-10.075 3.315-7.382 14.622-16.973 27.573-28.232 38.57v-32.538c0-26.416-21.49-47.906-47.906-47.906h-24.825v-22.805c0-.436-.045-.861-.116-1.276 12.279-8.683 20.32-22.98 20.32-39.13v-40.407c0-20.846-16.959-37.805-37.805-37.805h-20.203c-20.846 0-37.805 16.959-37.805 37.805v40.407c0 16.149 8.04 30.447 20.32 39.13-.071.416-.116.84-.116 1.276v22.805h-24.825c-26.416 0-47.906 21.491-47.906 47.906v32.408c-26.871-26.178-43.59-62.73-43.59-103.119 0-79.415 64.609-144.024 144.024-144.024s144.024 64.609 144.024 144.024c0 10.929-1.235 21.826-3.671 32.387-.933 4.035 1.584 8.062 5.621 8.993zm-178.883-122.194c0-12.575 10.23-22.805 22.805-22.805h20.203c12.574 0 22.805 10.23 22.805 22.805v11.982c-4.41-.804-10.03-2.499-14.609-6.065-1.963-1.528-4.556-1.985-6.922-1.217-14.09 4.57-28.953 7.201-44.281 7.847v-12.547zm0 27.553c15.62-.606 30.823-3.107 45.331-7.468 7.099 4.437 14.884 6.296 20.481 7.072v13.249c0 18.145-14.762 32.906-32.906 32.906s-32.906-14.762-32.906-32.906zm20.203 59.037c4.049 1.115 8.305 1.723 12.703 1.723s8.655-.608 12.703-1.723v17.028h-25.406zm-72.732 64.934c0-18.145 14.762-32.906 32.906-32.906h105.057c18.145 0 32.906 14.762 32.906 32.906v45.298c-7.929 5.855-16.439 10.873-25.406 14.977v-40.072c0-4.142-3.357-7.5-7.5-7.5s-7.5 3.358-7.5 7.5v45.95c-14.277 4.675-29.433 7.159-45.028 7.159-15.72 0-30.855-2.54-45.028-7.217v-45.892c0-4.142-3.357-7.5-7.5-7.5s-7.5 3.358-7.5 7.5v39.987c-9.006-4.146-17.513-9.194-25.406-15.03v-45.16z"/></svg>