<?xml version="1.0"?><svg width="640" height="480" xmlns="http://www.w3.org/2000/svg" xmlns:xlink="http://www.w3.org/1999/xlink">
 <title>purple book reading</title>
 <defs>
  <linearGradient id="linearGradient902">
   <stop id="stop903" offset="0" stop-color="#000000"/>
   <stop id="stop904" offset="1" stop-opacity="0" stop-color="#000000"/>
  </linearGradient>
  <linearGradient id="linearGradient51" x1="0.189349" x2="0.745562" xlink:href="#linearGradient902" y1="0.117187" y2="0.929687"/>
 </defs>
 <g>
  <title>Layer 1</title>
  <path d="m191.318298,391.077209c19.694504,7.033783 33.7621,22.507996 88.625488,7.033691c54.86322,-15.474213 212.419617,-97.065887 151.929199,-143.488708c-60.490387,-46.422897 -191.318283,-77.371399 -268.689697,-77.371399c-12.660797,36.575607 -37.982307,188.504822 28.134995,213.826416l0.000015,0z" id="path630" stroke-width="1pt" fill-rule="evenodd" fill="url(#linearGradient51)"/>
  <path d="m393.890594,253.673904c11.25412,1.406784 30.948608,9.314682 25.321594,26.741592c-5.627075,17.427002 -189.911591,122.152802 -213.826385,114.231506c-23.91481,-7.921204 -47.829605,-34.676392 -47.829605,-34.676392l236.334396,-106.296707z" id="path629" stroke-width="1.06122" fill-rule="evenodd" fill="#333333"/>
  <path d="m399.5177,196.879898c2.813507,26.932602 5.627106,55.831207 1.406891,76.235916c-97.065979,55.573395 -171.623886,95.930389 -225.08049,108.045197c-18.287796,-17.427002 -22.508102,-99.809021 -22.508102,-99.809021l246.181702,-84.472092z" id="path628" stroke-width="12.5" stroke="#7f7f7f" fill-rule="evenodd" fill="#bfbfbf"/>
  <path d="m213.826401,294.026093c43.60939,-20.662384 180.064285,-87.312286 202.572403,-98.566299c-40.795807,-21.101288 -198.352097,-99.835793 -236.334503,-109.150551c-14.067505,4.752846 -140.675251,61.431557 -140.675251,61.431557c21.101292,22.507996 158.963047,141.532608 174.437351,146.285294z" id="path626" stroke-linejoin="round" stroke-width="12.5" stroke="#333333" fill-rule="evenodd" fill="#3f3f3f"/>
  <path d="m211.012894,295.077911c0,0 -26.728394,22.179901 -28.134995,50.696686c-1.406799,28.516815 23.914795,34.170593 21.101196,44.372894c-54.863297,1.76181 -157.556274,-137.312393 -181.471066,-163.889984c-10.55064,-16.102203 -15.12259,-29.004913 -10.55064,-47.179611c4.571939,-18.174789 15.47427,-28.960693 28.838409,-28.168503c26.728279,26.905807 139.268501,119.175293 170.217094,144.168518z" id="path627" stroke-width="12.5" stroke="#333333" fill-rule="evenodd" fill="#7f7f7f"/>
 </g>
</svg>