<?xml version="1.0" encoding="iso-8859-1"?>
<!-- Generator: Adobe Illustrator 19.0.0, SVG Export Plug-In . SVG Version: 6.00 Build 0)  -->
<svg version="1.1" id="Capa_1" xmlns="http://www.w3.org/2000/svg" xmlns:xlink="http://www.w3.org/1999/xlink" x="0px" y="0px"
	 viewBox="0 0 512.051 512.051" style="enable-background:new 0 0 512.051 512.051;" xml:space="preserve">
<g>
	<g>
		<path d="M506.78,54.87c-3.2-1.941-7.253-1.984-10.539-0.213c-0.768,0.405-78.187,41.365-240.235,41.365
			S16.562,55.061,15.772,54.656c-3.264-1.792-7.317-1.728-10.539,0.213c-3.243,1.92-5.227,5.397-5.227,9.152v384
			c0,3.755,1.984,7.232,5.227,9.152c3.243,1.963,7.296,2.005,10.539,0.213c0.789-0.405,78.187-41.365,240.235-41.365
			s239.467,40.96,240.235,41.344c1.579,0.875,3.349,1.301,5.099,1.301c1.877,0,3.776-0.491,5.44-1.493
			c3.243-1.92,5.227-5.397,5.227-9.152v-384C512.007,60.267,510.023,56.789,506.78,54.87z M490.674,431.467
			c-30.805-12.501-107.072-36.779-234.667-36.779S52.167,418.966,21.34,431.467V80.576c30.827,12.501,107.051,36.779,234.667,36.779
			s203.861-24.277,234.667-36.779V431.467z"/>
	</g>
</g>
<g>
	<g>
		<path d="M509.575,377.195l-106.667-128c-4.053-4.864-12.352-4.864-16.384,0l-43.605,52.309l-67.008-114.859
			c-1.877-3.2-5.269-5.205-8.981-5.291c-3.819-0.128-7.189,1.771-9.216,4.885l-88.341,137.408l-65.344-74.667
			c-2.261-2.581-5.632-3.819-9.088-3.584c-3.435,0.363-6.485,2.325-8.213,5.333L1.394,400.064
			c-2.901,5.12-1.131,11.627,3.989,14.549c1.664,0.96,3.477,1.408,5.291,1.408c3.691,0,7.296-1.92,9.28-5.376l77.888-136.341
			l64.811,74.069c2.176,2.496,5.269,3.84,8.811,3.605c3.328-0.235,6.379-2.048,8.192-4.864l86.592-134.677l65.877,112.96
			c1.749,3.008,4.864,4.971,8.32,5.248c3.605,0.341,6.869-1.131,9.088-3.797l45.141-54.165l98.539,118.187
			c3.776,4.544,10.475,5.099,15.019,1.365C512.732,388.459,513.351,381.718,509.575,377.195z"/>
	</g>
</g>
<g>
	<g>
		<path d="M106.674,138.688c-23.531,0-42.667,19.136-42.667,42.667c0,23.531,19.136,42.667,42.667,42.667
			c23.531,0,42.667-19.136,42.667-42.667C149.34,157.824,130.204,138.688,106.674,138.688z M106.674,202.688
			c-11.776,0-21.333-9.579-21.333-21.333c0-11.755,9.557-21.333,21.333-21.333s21.333,9.579,21.333,21.333
			C128.007,193.109,118.45,202.688,106.674,202.688z"/>
	</g>
</g>
<g>
</g>
<g>
</g>
<g>
</g>
<g>
</g>
<g>
</g>
<g>
</g>
<g>
</g>
<g>
</g>
<g>
</g>
<g>
</g>
<g>
</g>
<g>
</g>
<g>
</g>
<g>
</g>
<g>
</g>
</svg>
